<svg xmlns="http://www.w3.org/2000/svg" width="129" height="35"><mask id="a" fill="#fff"><path fill-rule="evenodd" d="M0 .056h128.955v33.772H0z"/></mask><g fill="none" fill-rule="evenodd"><path fill="red" d="M128.928 9.22c.027-1.504.908-8.936-9.96-9.128C114.553.012 0 .092 0 .092S.039 23.079 0 25.36c-.036 2.28 1.424 8.304 8.071 8.423 6.645.116 106.401-.033 108.157 0 1.753.03 12.7 0 12.7 0z" mask="url(#a)" transform="translate(0 .196)"/><g fill="#fefefe"><path d="M41.561 24.817V8.598H53.9v3.865H46.69v2.518h5.765v3.757h-5.765v6.079zM56.016 24.792V8.599h7.743q1.628 0 2.732.171 1.1.173 1.81.541a3.9 3.9 0 0 1 1.215.937q.502.561.741 1.197.25.636.254 1.585-.001 1.176-.386 1.973c-.245.53-.6.97-1.056 1.315q-.483.366-1.225.561 1.527.57 2.074 1.272.545.689.593 2.339l.073 2.47q.024.54.11.635.11.142.394.162v1.035h-5.264c-.147-.425-.232-1.697-.252-2.717l-.032-1.153q-.011-.799-.265-1.23a1.52 1.52 0 0 0-.73-.668c-.328-.151-.82-.226-1.487-.226H61.04v5.994zm5.024-9.423h2.48q1.2.001 1.692-.41.492-.41.491-1.1.002-.71-.472-1.099-.467-.398-1.647-.4H61.04zM73.2 24.808V8.598h13.02v3.82h-7.943v2.279h6.742v3.674h-6.742v2.549h8.265v3.888zM102.433 13.456h-4.86q-.17-.667-.654-.997-.473-.338-1.363-.34-.876 0-1.332.35a.83.83 0 0 0-.347.69q0 .362.26.584.366.318 1.729.646l1.99.478q2.758.658 3.866 1.867 1.115 1.208 1.12 2.8-.002 1.271-.584 2.323-.57 1.04-1.405 1.644-.84.604-2.172.955-1.335.36-2.803.36-1.611 0-3.032-.414c-.947-.276-1.724-.671-2.343-1.187a5.3 5.3 0 0 1-1.384-1.793q-.335-.722-.463-1.781h4.91c.117.486.361.86.745 1.123q.565.393 1.748.392 1.032.002 1.484-.34c.224-.169.33-.406.333-.71q-.002-.465-.311-.752-.304-.288-1.679-.616l-1.781-.435a13 13 0 0 1-2.623-.911q-1.225-.583-1.848-1.508-.624-.92-.624-2.236 0-1.293.558-2.302a4.6 4.6 0 0 1 1.494-1.624q.947-.615 2.096-.871 1.16-.252 2.387-.252c.971 0 1.866.098 2.675.296q1.213.287 1.933.763.719.467 1.171 1.084.452.603.699 1.24.255.626.41 1.474M104.955 24.817V8.598h5.273v5.488h4.944V8.598h5.286v16.219h-5.286v-6.282h-4.944v6.282zM21.737 19.837c0-.39-.158-2.318 2.712-2.318h7.947v3.415c0 .59-.47 2.143-2.227 2.143h-6.383c-.463 0-1.508.077-2.05 2.6zM20.868 19.837c0-.39.157-2.318-2.712-2.318h-7.95v3.415c0 .59.473 2.143 2.228 2.143h6.385c.464 0 1.505.077 2.049 2.6z"/><path d="M21.784 11.278c0-.45-.184-2.68 3.132-2.68h9.191v3.948c0 .684-.545 2.48-2.576 2.48h-7.38c-.537 0-1.741.089-2.37 3.007zM20.822 11.278c0-.45.184-2.68-3.135-2.68h-9.19v3.948c0 .684.548 2.48 2.575 2.48h7.381c.535 0 1.74.089 2.369 3.007z"/></g></g></svg>